<?xml version="1.0" encoding="utf-8"?>
<!-- Generator: Adobe Illustrator 16.0.0, SVG Export Plug-In . SVG Version: 6.00 Build 0)  -->
<svg version="1.2" baseProfile="tiny" id="Layer_1" xmlns="http://www.w3.org/2000/svg" xmlns:xlink="http://www.w3.org/1999/xlink"
	 x="0px" y="0px" width="72px" height="58.031px" viewBox="0 0 72 58.031" xml:space="preserve">
<path id="Sun__x26__Cloud" fill="#231F20" d="M49.984,14c-4.538,0-8.884,1.427-12.501,3.924c-0.647-2.474-1.849-4.688-3.46-6.518
	l3.701-3.702c0.391-0.391,0.391-1.023,0-1.414s-1.023-0.391-1.414,0l-3.698,3.698c-2.596-2.289-5.936-3.72-9.597-3.943V1
	c0-0.552-0.447-1-1-1s-1,0.448-1,1v5.051c-3.658,0.228-6.981,1.684-9.568,3.968L7.719,6.29c-0.391-0.391-1.023-0.391-1.414,0
	s-0.391,1.023,0,1.414l3.729,3.729C7.749,14.02,6.294,17.342,6.066,21H1c-0.553,0-1,0.448-1,1s0.447,1,1,1h5.053
	c0.224,3.617,1.647,6.969,3.961,9.589l-3.705,3.704c-0.391,0.391-0.391,1.023,0,1.414C6.504,37.902,6.76,38,7.016,38
	s0.512-0.098,0.707-0.293l3.71-3.708c1.069,0.941,2.276,1.743,3.595,2.386c-0.663,1.754-1.043,3.646-1.043,5.631
	c0,8.822,7.178,16,15.999,16l20.001,0.016C62.124,58.031,72,48.155,72,36.016S62.124,14,49.984,14z M8.016,22c0-7.72,6.28-14,14-14
	c6.747,0,12.426,4.709,13.72,11.265c-2.188,1.854-4.032,4.132-5.372,6.755c-0.126-0.003-0.252-0.004-0.379-0.004
	c-6.132,0-11.462,3.471-14.146,8.548C11.058,32.217,8.016,27.384,8.016,22z M49.985,56.031l-20.001-0.016c-7.72,0-14-6.28-14-14
	s6.28-14,14-14c0.298,0,0.595,0.009,0.89,0.027c0.022,0.003,0.045,0.004,0.068,0.005c3.379,0.227,6.522,1.65,8.938,4.066
	c0.391,0.391,1.023,0.391,1.414,0s0.391-1.023,0-1.414c-2.412-2.413-5.46-3.96-8.767-4.484C36.049,19.966,42.753,16,49.984,16
	C61.021,16,70,24.979,70,36.016C70,47.053,61.021,56.031,49.985,56.031z"/>
<g>
</g>
<g>
</g>
<g>
</g>
<g>
</g>
<g>
</g>
<g>
</g>
<g>
</g>
<g>
</g>
<g>
</g>
<g>
</g>
<g>
</g>
<g>
</g>
<g>
</g>
<g>
</g>
<g>
</g>
</svg>
